<svg xmlns="http://www.w3.org/2000/svg" viewBox="0 0 68.45 82.05"><defs><style>.cls-1{fill:#e4508e;}.cls-2,.cls-6{fill:#404580;}.cls-3{fill:#fff;}.cls-3,.cls-6{stroke:#404580;stroke-linecap:round;stroke-linejoin:round;}.cls-4{fill:#feabce;}.cls-5{fill:#303460;}</style></defs><g id="Layer_2" data-name="Layer 2"><g id="OBJECTS"><path class="cls-1" d="M1,81.55a.49.49,0,0,1-.37-.16A.5.5,0,0,1,.5,81l.22-3.16.22-4.43c0-5.17.24-11.06,3.09-15.25s7.87-6.54,13.62-6.56l16.44-4.47.13,0,.13,0,16.44,4.47c5.76,0,10.85,2.47,13.63,6.56s3.09,10.08,3.09,15.27l.22,4.42L68,81a.47.47,0,0,1-.14.37.45.45,0,0,1-.36.16Z"/><path class="cls-2" d="M34.22,47.63l16.51,4.49c5.71,0,10.64,2.45,13.28,6.34s3,9.23,3,15l.22,4.45.22,3.15H1l.22-3.15.22-4.45c0-5.76.36-11.1,3-15S12,52.12,17.72,52.12l16.5-4.49m0-1a1.27,1.27,0,0,0-.26,0L17.59,51.12c-5.9,0-11.12,2.57-14,6.78S.44,68.19.44,73.45l-.22,4.4L0,81a1,1,0,0,0,.27.76,1,1,0,0,0,.73.31H67.45a1,1,0,0,0,.73-.31,1.06,1.06,0,0,0,.27-.76l-.22-3.15L68,73.4c0-5.21-.25-11.19-3.17-15.5s-8.08-6.74-14-6.78L34.49,46.67a1.26,1.26,0,0,0-.27,0Z"/><path class="cls-3" d="M41.68,54.08c0,3.62-3.77,6.54-7.46,6.54h0c-3.68,0-7.45-2.92-7.45-6.54l1.57-11.16c0-3.61,2.2-6.54,5.88-6.54h0c3.69,0,5.89,2.93,5.89,6.54Z"/><path class="cls-3" d="M49.77,22.68c0,5.52-.6,12.14-3.65,16.52a14.1,14.1,0,0,1-23.79,0c-3-4.38-3.65-11-3.65-16.52s.6-10,3.65-13.06A16.49,16.49,0,0,1,34.22,4.84a16.49,16.49,0,0,1,11.9,4.78C49.17,12.69,49.77,17.15,49.77,22.68Z"/><path class="cls-3" d="M20.14,26.66c-3.15,0-4.66,0-4.66,2.61,0,2.95,3.16,2.62,5.11,2.29"/><path class="cls-3" d="M48.3,26.66c3.16,0,4.67,0,4.66,2.61,0,2.95-3.15,2.62-5.11,2.29"/><path class="cls-2" d="M28.69,29c2.61,0,2.61-4.06,0-4.06S26.07,29,28.69,29Z"/><path class="cls-2" d="M39.76,29c2.62,0,2.62-4.06,0-4.06S37.14,29,39.76,29Z"/><path class="cls-2" d="M32.87,25.57a18.73,18.73,0,0,1-.51,3.07c-.17.7-.39,1.38-.56,2.08a2.55,2.55,0,0,0-.09,1.42,1.32,1.32,0,0,0,1,.85,9.39,9.39,0,0,0,2.8.09c.52,0,.53-.85,0-.82a11,11,0,0,1-2.36,0,1.81,1.81,0,0,1-.54-.17.34.34,0,0,1-.15-.19.35.35,0,0,1,0-.11c0,.09,0,0,0,0s0-.2,0-.3,0,0,0-.06l0-.17c0-.13.06-.27.1-.4.17-.66.37-1.31.54-2a21.48,21.48,0,0,0,.53-3.29c0-.52-.77-.52-.81,0Z"/><path class="cls-2" d="M29.39,35.14A4.56,4.56,0,0,0,33,37.28a7.64,7.64,0,0,0,4.61-.69A3.06,3.06,0,0,0,39.1,35c.2-.51-.62-.73-.81-.23A2.52,2.52,0,0,1,36.87,36a6.86,6.86,0,0,1-2.53.49c-1.5,0-3.49-.32-4.22-1.81-.24-.49-1-.06-.73.43Z"/><path class="cls-2" d="M26.2,23.52a3.65,3.65,0,0,1,2.06-.6,3.88,3.88,0,0,1,2.06.46c.46.29.89-.45.43-.73a4.69,4.69,0,0,0-2.49-.57,4.48,4.48,0,0,0-2.49.71.45.45,0,0,0-.15.58.43.43,0,0,0,.58.15Z"/><path class="cls-2" d="M42.67,22.79a4.43,4.43,0,0,0-2.48-.71,4.67,4.67,0,0,0-2.49.57c-.46.28,0,1,.43.73a3.83,3.83,0,0,1,2.06-.46,3.67,3.67,0,0,1,2.06.6.41.41,0,0,0,.57-.15.43.43,0,0,0-.15-.58Z"/><path class="cls-4" d="M25.07,36.72c4,0,4-5.11,0-5.11s-4,5.11,0,5.11Z"/><path class="cls-4" d="M43.38,36.72c4,0,4-5.11,0-5.11s-4,5.11,0,5.11Z"/><path class="cls-5" d="M22,8c4.15,6.12,10.71,7.21,17.48,7.86,4.37.44,11.35.88,14.85-1.74C51.26,8.65,44.93,1.66,38.59.56c-5-.87-15.78-2-16.6,7.43"/><path class="cls-5" d="M24.61,11.27c-.87,5.68-3.27,11.89-4.8,18.13C16,25.29,12.11.94,24.83,7.77"/><path class="cls-5" d="M45.58,14.54c.88,4.37,1.75,10.71,2.84,14.86C51.4,25.57,53,16.29,50,12.8"/><path class="cls-6" d="M26.73,47.38c5.7,8.11,10.23,8.29,5.07,19-3.21-9.58-12.54-8.17-5.07-19"/><path class="cls-6" d="M41.72,47.38c-5.7,8.11-10.24,8.29-5.07,19,3.2-9.58,12.53-8.17,5.07-19"/></g></g></svg>